<svg xmlns="http://www.w3.org/2000/svg" width="512" height="211" fill="none" viewBox="0 0 512 211"><path fill="#000" fill-rule="evenodd" d="M150.226 209.772H94.17v-80.205H57.783v80.205H0V3.055h57.783v76.897H94.17V3.055h56.056zM407.037 146.258c22.746 0 41.187-18.482 41.187-41.287 0-22.8-18.441-41.285-41.187-41.285-22.749 0-41.187 18.485-41.187 41.285 0 22.805 18.438 41.287 41.187 41.287m-52.393-41.287c0-29.004 23.456-52.518 52.393-52.518 28.936 0 52.396 23.515 52.396 52.518 0 29.008-23.46 52.521-52.396 52.521-28.937 0-52.393-23.513-52.393-52.521m-72.955 0c6.483-.823 17.29-8.254 21.097-12.996-1.337 5.88-1.44 22.901.124 28.781-4.345-6.705-14.633-14.959-21.221-15.785m-37.666-55.6c8.234 0 14.718 8.147 14.718 17.432s-6.484 17.438-14.718 17.438h-28.299V49.37zm-.103 77.47c8.232 0 14.717 8.152 14.717 17.434 0 9.286-6.485 17.435-14.717 17.435h-28.3v-34.869zm163.083 83.95c57.664-.023 104.591-48.05 104.578-105.861C511.569 45.9 464.667.044 407.003 0c-57.598-.042-87.028 42.458-94.299 59.613.067-25.752-25.253-56.148-54.872-56.18h-95.426v206.33l88.97.018c35.87 0 61.394-31.156 61.438-57.873 8.188 16.814 36.591 58.903 94.189 58.883" clip-rule="evenodd"/></svg>