<?xml version="1.0" encoding="UTF-8"?>
<svg id="Layer_1" data-name="Layer 1" xmlns="http://www.w3.org/2000/svg" viewBox="0 100 256 56">
  <defs>
    <style>
      .cls-1 {
        fill: #e82128;
      }
    </style>
  </defs>
  <path class="cls-1" d="M38.62,126.32c-.1-1.53-.51-3.06-1.33-4.39l-6.94-12.14c-.51-.92-.92-1.94-1.12-2.96l-.31,.51c-1.73,2.96-1.73,6.73,0,9.69l5.61,9.69c1.73,2.96,1.73,6.73,0,9.69l-.31,.51c-.2-1.02-.61-2.04-1.12-2.96l-5.1-8.88-3.27-5.71c-.51-.92-.92-1.94-1.12-2.96l-.31,.51c-1.73,2.96-1.73,6.63,0,9.69l5.61,9.69c1.73,2.96,1.73,6.73,0,9.69l-.31,.51c-.2-1.02-.61-2.04-1.12-2.96l-7.04-12.14c-.92-1.63-1.33-3.47-1.33-5.31-7.45,1.94-12.65,6.12-12.65,10.92,0,6.73,10,12.14,22.35,12.14s22.35-5.41,22.35-12.14c.1-4.59-5-8.77-12.55-10.71h0Zm21.12,20.71c.1-1.73,.31-2.86,.82-4.29,2.35,1.12,5.41,1.63,7.65,1.63,3.88,0,6.12-1.22,6.12-3.78s-1.63-3.57-5.51-5.31l-2.14-.82c-3.98-1.73-6.63-3.98-6.63-8.37,0-4.8,3.37-7.86,10.1-7.86,2.75,0,5.31,.41,7.65,1.22-.1,1.63-.41,2.96-.82,4.18-2.24-.82-5-1.22-6.94-1.22-3.67,0-5.31,1.43-5.31,3.67s1.63,3.47,4.59,4.69l2.24,.92c5.31,2.24,7.55,4.69,7.55,8.77,0,4.8-3.67,8.16-10.82,8.16-3.37,0-6.22-.51-8.57-1.63h0Zm41.94-20.1v21.02h-4.29l-.2-2.55c-1.22,1.84-2.96,3.06-5.92,3.06-5.51,0-9.29-4.08-9.29-11.12s3.98-11.63,11.73-11.63c3.06,.1,5.61,.41,7.96,1.22h0Zm-4.59,16.22v-13.16c-.92-.2-2.04-.2-3.37-.2-4.8,0-7.04,2.96-7.04,7.65,0,4.29,1.73,7.35,5.82,7.35,1.94-.1,3.37-.71,4.59-1.63h0Zm28.26-9.29v14.08h-4.59v-13.26c0-3.37-1.12-4.9-5.71-4.9-1.12,0-2.35,.1-3.67,.31v17.86h-4.59v-21.02c2.96-.71,6.22-1.22,8.37-1.22,7.75,.1,10.2,3.06,10.2,8.16Zm12.86,10.71c1.33,0,2.65-.2,3.57-.61-.1,1.22-.31,2.65-.51,3.88-1.22,.51-2.65,.71-3.88,.71-4.49,0-7.35-2.04-7.35-7.14v-22.14c1.43-.51,3.16-.71,4.59-.71v7.96h7.35c-.1,1.43-.2,2.75-.41,3.98h-6.94v10.31c0,2.65,1.33,3.78,3.57,3.78h0Zm24.79-17.65v21.02h-4.29l-.2-2.55c-1.22,1.84-2.96,3.06-5.92,3.06-5.51,0-9.29-4.08-9.29-11.12s3.98-11.63,11.73-11.63c3.06,.1,5.51,.41,7.96,1.22h0Zm-4.69,16.22v-13.16c-.92-.2-2.04-.2-3.37-.2-4.8,0-7.04,2.96-7.04,7.65,0,4.29,1.73,7.35,5.82,7.35,1.94-.1,3.47-.71,4.59-1.63Zm28.37-9.29v14.08h-4.69v-13.26c0-3.37-1.12-4.9-5.71-4.9-1.12,0-2.35,.1-3.67,.31v17.86h-4.59v-21.02c2.96-.71,6.22-1.22,8.37-1.22,7.75,.1,10.31,3.06,10.31,8.16h0Zm23.37-15.31v29.39h-4.29l-.2-2.65c-1.22,1.94-2.96,3.16-6.02,3.16-5.51,0-9.29-4.08-9.29-11.12s3.98-11.63,11.73-11.63c1.22,0,2.35,.1,3.47,.31v-6.94c1.43-.41,3.06-.51,4.59-.51h0Zm-4.59,24.59v-12.96c-1.22-.2-2.45-.41-3.67-.41-4.59,0-6.73,2.86-6.73,7.65,0,4.29,1.73,7.35,5.82,7.35,1.84-.1,3.37-.71,4.59-1.63h0Zm27.86-4.18h-14.79c.61,3.78,2.75,5.51,6.94,5.51,2.55,0,5.1-.51,7.35-1.63-.2,1.22-.41,2.86-.71,4.18-2.14,.92-4.29,1.33-6.84,1.33-7.75,0-11.43-4.29-11.43-11.43,0-6.22,2.86-11.22,10.2-11.22,6.63,0,9.49,4.29,9.49,9.59,0,1.43,0,2.45-.2,3.67h0Zm-14.79-3.88h10.41c0-3.47-1.84-5.51-5-5.51-3.37,.1-5.1,1.94-5.41,5.51Zm31.02-9.08c0,1.43-.2,3.06-.41,3.98-1.12-.1-2.14-.2-3.47-.2-1.12,0-2.24,.1-3.37,.2v17.96h-4.59v-21.02c1.94-.71,5.31-1.22,7.86-1.22,1.33,.1,2.96,.1,3.98,.31h0Z"/>
</svg>